<?xml version="1.0" standalone="no"?><!DOCTYPE svg PUBLIC "-//W3C//DTD SVG 1.1//EN" "http://www.w3.org/Graphics/SVG/1.1/DTD/svg11.dtd"><svg t="1572941501629" class="icon" viewBox="0 0 1024 1024" version="1.1" xmlns="http://www.w3.org/2000/svg" p-id="18322" width="40" height="40" xmlns:xlink="http://www.w3.org/1999/xlink"><defs><style type="text/css"></style></defs><path d="M730.42435081 253.06515056l-154.75705186 153.97034231c-3.03445209 2.92206502-7.19277497 3.48400041-11.4634859 2.92206502l-261.30003343-33.37897205h-0.11238707c-3.93354872 0-8.54142089 4.49548411-10.11483999 6.06890321l-28.32155156 31.24361756 208.02854264 69.68000911c2.02296839 0.67432247 3.93354872 1.79819423 5.50696781 3.37161333 5.39458172 5.39458172 5.28219464 14.16077578-0.11238708 19.55535651l-98.67588314 98.67588413c-2.69729086 2.69729086-6.5184525 4.15832287-10.33961414 4.04593579l-97.88917457-3.93354872-9.44051654 9.44051752 89.68491394 46.97781244c2.4725167 1.34864494 4.49548411 3.37161333 5.84413003 5.84413003l46.97781244 89.68491394 5.84413003-5.84412905-0.33716123-101.37317499c-0.11238708-3.14683917 0.78670955-6.29367834 2.58490378-8.76619406 0.44954831-0.56193539 0.89909662-1.23625786 1.46103201-1.68580715l98.67588413-98.67588315c1.46103202-1.57341909 3.37161333-2.69729086 5.39458073-3.37161332 7.30516205-2.4725167 15.17226047 1.46103202 17.53238911 8.76619406l69.90478327 208.14092972 23.82606745-23.82606746c2.02296839-2.02296839 4.0459358-7.64232328 3.70877456-10.45200121l-26.97290662-265.34596922c-0.44954831-4.15832287 1.0114837-8.31664575 3.9335497-11.23871077l155.20660017-155.20660115c9.55290459-9.66529167 9.55290459-25.17471337 0-34.84000407-9.10335628-9.21574336-25.06232531-9.66529167-34.27806867-0.44954831z" p-id="18323" fill="#4ec99b"></path><path d="M511.94380597 2.66666667C233.67331883 2.66666667 8 228.3399855 8 506.61047264s225.67331883 503.94380597 503.94380597 503.94380695S1015.88761292 784.88096076 1015.88761292 506.61047264 790.32668117 2.66666667 511.94380597 2.66666667z m272.53874517 305.24339377L633.99620923 458.39640234l26.29858416 258.82751672c1.12387078 11.12632369-3.82116164 25.06232531-11.68826006 32.92942373l-30.68168119 30.68168119c-4.15832287 4.38309703-10.00245291 6.85561373-15.95897002 6.96800081-9.21574336 0-16.85806664-5.95651711-20.00490581-15.50942071L515.98974275 576.29048175l-78.78336539 78.78336539 0.33716123 102.04749647c0 3.70877456-1.46103202 7.19277497-4.04593579 9.89006583l-23.26413207 23.26413206c-2.58490378 2.58490378-6.18129127 4.0459358-9.77767875 4.0459358-0.67432247 0-1.34864494 0-2.13535448-0.11238708-4.38309703-0.67432247-8.20425867-3.37161333-10.22722706-7.30516205l-53.72104008-102.49704478-102.60943186-53.72103909c-1.23625786-0.67432247-2.36012962-1.46103202-3.37161333-2.47251671-5.39458172-5.39458172-5.39458172-14.27316286 0-19.66774458l27.08529371-27.0852937c2.69729086-2.69729086 6.5184525-4.15832287 10.33961414-4.0459358l97.88917359 3.82116164 78.55859123-78.55859123L246.26067552 436.93046451c-7.86709744-2.58490378-13.26167916-8.20425867-14.94748533-15.5094217s0.67432247-14.72271117 6.5184525-20.5668412l35.17716529-35.17716628c7.86709744-7.86709744 22.0278742-12.81213084 33.15419789-11.46348493l254.66919385 30.00735872L710.86899331 234.18411553c20.34206705-20.34206705 53.38387786-20.34206705 73.72594491 0 20.22967997 20.34206705 20.22967997 53.27149078-0.11238708 73.72594491z" p-id="18324" fill="#4ec99b"></path></svg>