<?xml version="1.0" standalone="no"?><!DOCTYPE svg PUBLIC "-//W3C//DTD SVG 1.1//EN" "http://www.w3.org/Graphics/SVG/1.1/DTD/svg11.dtd"><svg t="1576051159465" class="icon" viewBox="0 0 1024 1024" version="1.1" xmlns="http://www.w3.org/2000/svg" p-id="2403" width="40" height="40" xmlns:xlink="http://www.w3.org/1999/xlink"><defs><style type="text/css"></style></defs><path d="M512 167c87.7 56.6 189 91.8 293 101.8v295.6c0 33.8-11.3 69.2-33.6 105.1-20.8 33.5-51.3 67.3-88.2 97.8-32.5 26.9-70 51-105.4 68-35.9 17.2-58.7 21.7-65.8 21.7-7.1 0-29.9-4.5-65.8-21.7-35.4-17-72.9-41.1-105.4-68-36.9-30.5-67.4-64.3-88.2-97.8-22.3-35.9-33.6-71.2-33.6-105.1V268.8c104-10 205.3-45.2 293-101.8m0-64c-12 0-24.1 3.4-34.6 10.2-77.6 50.1-167.8 82.7-264.7 92-32.8 3.2-57.7 30.8-57.7 63.7v295.7c0 197 267.8 356.6 357 356.6s357-159.6 357-356.6V268.9c0-32.9-25-60.5-57.7-63.7-96.9-9.3-187-41.9-264.7-92C536.1 106.4 524 103 512 103z" p-id="2404" fill="#4ec99b"></path><path d="M421.5 647.8L331 557.3c-12.4-12.4-12.4-32.8 0-45.3 12.4-12.4 32.8-12.4 45.3 0l90.5 90.5c12.4 12.4 12.4 32.8 0 45.3-12.5 12.4-32.9 12.4-45.3 0z" p-id="2405" fill="#4ec99b"></path><path d="M693 421.5L466.7 647.8c-12.4 12.4-32.8 12.4-45.3 0-12.4-12.4-12.4-32.8 0-45.3l226.3-226.3c12.4-12.4 32.8-12.4 45.3 0 12.5 12.5 12.5 32.8 0 45.3z" p-id="2406" fill="#4ec99b"></path></svg>