<?xml version="1.0" standalone="no"?><!DOCTYPE svg PUBLIC "-//W3C//DTD SVG 1.1//EN" "http://www.w3.org/Graphics/SVG/1.1/DTD/svg11.dtd"><svg t="1553234191932" class="icon" style="" viewBox="0 0 1535 1024" version="1.1" xmlns="http://www.w3.org/2000/svg" p-id="2747" xmlns:xlink="http://www.w3.org/1999/xlink" width="299.8046875" height="200"><defs><style type="text/css"></style></defs><path d="M396.87746 841.763712h670.222382a10.23996 10.23996 0 0 1 0 20.49692H396.87746a10.23996 10.23996 0 0 1 0-20.49692zM177.100318 903.246472h302.894817a10.23996 10.23996 0 1 1 0 20.49692H177.100318a10.23996 10.23996 0 0 1 0-20.49692z m413.382385 0h754.155055a10.23996 10.23996 0 1 1 0 20.49692H590.482703a10.23996 10.23996 0 0 1 0-20.49692z m-510.810004 0h44.500826a10.23996 10.23996 0 1 1 0 20.49692h-44.509826a10.23996 10.23996 0 0 1 0-20.49692zM1103.2967 841.763712h30.225882a10.23996 10.23996 0 0 1 0 20.49692h-30.225882a10.23996 10.23996 0 0 1 0-20.49692z m303.493815 61.48276h54.366787a10.23996 10.23996 0 1 1 0 20.49692h-54.366787a10.23996 10.23996 0 1 1 0-20.49692z m-334.890692 98.373615h110.643568a10.23996 10.23996 0 1 1 0 20.49692h-110.643568a10.23996 10.23996 0 1 1 0-20.49692z m-47.094816 0h15.967937a10.23996 10.23996 0 1 1 0 20.49692h-15.967937a10.23996 10.23996 0 1 1 0-20.49692z m-402.916426 0h174.808317a10.23996 10.23996 0 1 1 0 20.49692H621.878581a10.23996 10.23996 0 0 1 0-20.49692z m262.489974 0h110.652568a10.23996 10.23996 0 1 1 0 20.49692H884.386555a10.23996 10.23996 0 1 1 0-20.49692zM328.851725 841.763712h30.224882a10.23996 10.23996 0 1 1 0 20.49692h-30.224882a10.23996 10.23996 0 0 1 0-20.49692z m198.837224 61.48276h23.985906a10.23996 10.23996 0 1 1 0 20.49692H527.688949a10.23996 10.23996 0 0 1 0-20.49692z m36.385858-332.017703V388.497482c0-26.345897 16.600935-46.973817 41.689837-50.748801a118.835536 118.835536 0 0 1 25.303901-0.294999c7.966969 0.581998 13.797946 8.643966 13.407948 17.095933-0.312999 8.590966-6.907973 15.507939-15.177941 15.914938-5.336979 0.173999-10.673958 0-16.009938 0.035-10.29296 0.138999-17.052933 7.159972-17.052933 17.96293v365.506572c0 10.976957 6.794973 18.03293 17.329932 18.032929H933.147365c10.847958 0 17.469932-6.985973 17.503932-18.614927v-100.559607l0.034999-262.854973a20.661919 20.661919 0 0 0-3.358986-12.78195 15.654939 15.654939 0 0 0-12.686951-6.620975c-5.301979-0.105-10.673958 0-16.009937-0.034999-8.912965 0.138999-16.262936-7.228972-16.427936-16.487936-0.07-4.451983 1.595994-8.739966 4.615982-11.906953s7.141972-4.928981 11.429955-4.902981c9.214964 0.113 18.639927-0.354999 27.507893 1.553994 21.217917 4.529982 36.256858 24.332905 37.019855 46.756817l0.035 3.817985v363.778579c0 21.911914-9.458963 38.044851-28.489889 47.754813a43.649829 43.649829 0 0 1-20.062921 4.503983H612.698617a47.277815 47.277815 0 0 1-34.589865-14.725943 51.051801 51.051801 0 0 1-14.040945-35.987859z m209.469181-167.293347H710.748234c-20.38392 0-33.860868-14.074945-33.929868-35.197862 0-10.18696-0.035-20.339921 0.034-30.562881 0.104-20.193921 13.754946-34.442865 33.20187-34.442865h126.879505c19.239925 0 33.063871 14.404944 33.09887 34.303866 0.034 10.725958 0.069 21.485916 0 32.246874a33.696868 33.696868 0 0 1-9.094964 23.690907 31.205878 31.205878 0 0 1-22.649912 9.892961c-21.555916 0.251999-43.145831 0.035-64.736747 0.07z m64.18975-66.55074H709.258239v32.975871H837.697738v-32.975871z m-99.197613 132.685482a106.816583 106.816583 0 0 1 87.343659 0 59.009769 59.009769 0 0 1 25.964898 44.855825c4.129984 14.752942 2.949988 40.126843-28.914887 79.663688a62.559756 62.559756 0 0 0-13.572947 37.774853 29.504885 29.504885 0 0 1-27.152893 31.865875 29.504885 29.504885 0 0 1-29.504885-27.144894 118.028539 118.028539 0 0 1 26.553896-79.081691 86.163663 86.163663 0 0 0 17.121933-28.324889 30.094882 30.094882 0 0 1 0-4.719982c-5.319979-7.081972-23.603908-4.721982-35.405862 0-9.805962 3.999984-32.489873 6.481975-40.86484 0a29.643884 29.643884 0 0 1-11.211956-27.449892c1.431994-10.489959 19.837923-23.429908 29.643884-27.438893z m43.66783 204.7822a27.144894 27.144894 0 0 1 29.504884 23.01391v12.981949a30.094882 30.094882 0 0 1-59.009769 0v-12.391951a27.144894 27.144894 0 0 1 29.504885-23.603908zM116.830554 277.062918a56.085781 56.085781 0 1 1 0-112.179562 56.085781 56.085781 0 0 1 0 112.179562z m0.199999-25.6429a30.250882 30.250882 0 1 0 0-60.502764 30.250882 30.250882 0 0 0 0 60.502764zM651.679464 45.493822a5.293979 5.293979 0 1 1 0 10.595959h-40.196843v40.195843a5.293979 5.293979 0 0 1-10.595958 0V56.089781h-40.204843a5.293979 5.293979 0 0 1 0-10.586959h40.204843V5.297979a5.293979 5.293979 0 0 1 10.587958 0v40.204843zM88.020666 501.86604a3.826985 3.826985 0 0 1-0.018 7.65397l-37.947852 0.017v38.148851a3.826985 3.826985 0 1 1-7.65397 0V509.50201l-38.582849-0.018a3.817985 3.817985 0 0 1 0.018-7.65397l38.572849 0.018v-38.087852a3.826985 3.826985 0 0 1 7.66297 0v38.113852zM1491.460184 308.782794a1.752993 1.752993 0 1 1-2.48199 2.48199L1471.595262 293.882852l-17.389932 17.381932a1.752993 1.752993 0 0 1-2.482991-2.48199l17.381932-17.381932-17.381932-17.389932a1.752993 1.752993 0 0 1 2.481991-2.481991l17.389932 17.381932 17.382932-17.381932a1.752993 1.752993 0 1 1 2.48199 2.481991l-17.381932 17.389932z m-366.920567 90.858645c-4.469983-4.459983-8.920965-8.938965-13.407947-13.381948-0.493998-0.485998-0.459998-0.745997 0.018-1.196995 1.092996-1.041996 2.125992-2.134992 3.209987-3.227988l0.555998 0.519998 13.545947 13.529948c0.451998 0.449998 0.407998 0.692997-0.017 1.100995-1.075996 1.041996-2.116992 2.134992-3.227987 3.279987-0.294999-0.268999-0.494998-0.432998-0.676998-0.623997z m33.748868 25.781899l14.039946 14.066945c0.035 0.035 0.053 0.078 0.147999 0.251999-1.179995 1.161995-2.351991 2.342991-3.557986 3.469987-0.095 0.088-0.519998-0.034-0.676997-0.19-1.977992-1.934992-3.930985-3.904985-5.891977-5.857977l-7.653971-7.66197-0.529997-0.555998c0.096-0.138999 0.164999-0.277999 0.259999-0.381998 1.041996-1.040996 2.074992-2.064992 3.098987-3.105988 0.259999-0.259999 0.459998-0.346999 0.763997-0.035z m-1.067995-25.964898c-0.901996-0.970996-1.865993-1.899993-2.811989-2.828989-0.259999-0.259999-0.354999-0.459998-0.052-0.762997l13.841946-13.823946c0.06-0.061 0.138999-0.096 0.302999-0.208 1.171995 1.179995 2.317991 2.316991 3.436986 3.479987 0.087 0.086 0.052 0.345999 0.009 0.493998-0.035 0.113-0.173999 0.199999-0.259999 0.285999-4.460983 4.459983-8.921965 8.903965-13.364948 13.372948-0.433998 0.442998-0.684997 0.433998-1.101995-0.009z m-31.673877 26.103898c0.909996 0.971996 1.864993 1.891993 2.819989 2.819989 0.259999 0.259999 0.346999 0.459998 0.043 0.771997l-13.831946 13.815946c-0.061 0.06-0.147999 0.104-0.303999 0.216999-1.179995-1.179995-2.325991-2.316991-3.444986-3.479987-0.087-0.087-0.052-0.346999 0-0.502998 0.026-0.113 0.172999-0.190999 0.259999-0.286999 4.451983-4.451983 8.911965-8.894965 13.354948-13.363947 0.433998-0.441998 0.694997-0.433998 1.102995 0z m16.599935-43.207832c0 2.793989-0.017 5.588978 0.01 8.382968 0.008 0.607998-0.173999 0.797997-0.781996 0.780997a78.031695 78.031695 0 0 0-3.929985-0.009c-0.434998 0-0.633998-0.095-0.633998-0.580998V373.76254c0-0.468998 0.146999-0.624998 0.606998-0.606998 1.361995 0.017 2.715989 0.026 4.060984 0 0.546998-0.026 0.676997 0.172999 0.676997 0.675998-0.017 2.837989-0.008 5.675978-0.008 8.513966z m-21.693915 26.259898a75.020707 75.020707 0 0 0 0 3.991984c0 0.459998-0.156999 0.606998-0.607997 0.606998a2826.488959 2826.488959 0 0 0-17.155933 0c-0.494998 0-0.589998-0.207999-0.589998-0.641998 0.026-1.353995 0.026-2.707989 0-4.052984-0.009-0.502998 0.155999-0.649997 0.649997-0.649997 2.829989 0.017 5.666978 0.008 8.504967 0.008 2.811989 0 5.631978 0.017 8.443967-0.009 0.571998 0 0.779997 0.139999 0.754997 0.746997z m60.744763-0.035a90.132648 90.132648 0 0 0 0 4.052984c0 0.433998-0.146999 0.571998-0.580998 0.571998h-17.147933c-0.519998 0-0.632998-0.199999-0.624997-0.667997a87.451658 87.451658 0 0 0 0-3.991985c-0.017-0.529998 0.164999-0.676997 0.685997-0.676997 2.828989 0.018 5.666978 0.01 8.503967 0.01 2.819989 0 5.631978 0.016 8.443967-0.01 0.537998 0 0.737997 0.139999 0.719997 0.711997z m-39.049848 34.451865c0 2.836989-0.018 5.674978 0 8.503967 0.008 0.554998-0.147999 0.737997-0.702997 0.719997a93.131636 93.131636 0 0 0-4.061984 0c-0.433998 0-0.571998-0.146999-0.571998-0.580997v-17.156933c0-0.449998 0.137999-0.623998 0.606998-0.606998 1.353995 0.017 2.707989 0.026 4.052984 0 0.537998-0.026 0.693997 0.155999 0.684997 0.676997-0.026 2.811989-0.008 5.631978-0.008 8.443967z m357.859603 101.140605a33.435869 33.435869 0 1 1 0-66.879738 33.435869 33.435869 0 0 1 0 66.879738z m-0.026-10.20496a23.655908 23.655908 0 1 0 0-47.311815 23.655908 23.655908 0 0 0 0 47.311815z m-416.991371-381.26551a24.279905 24.279905 0 1 1 0-48.560811 24.279905 24.279905 0 0 1 0 48.560811z m-0.259999-11.176957a13.363948 13.363948 0 1 0 0-26.709895 13.363948 13.363948 0 0 0 0 26.709895z" p-id="2748" fill="#4ec99b"></path></svg>