<?xml version="1.0" standalone="no"?><!DOCTYPE svg PUBLIC "-//W3C//DTD SVG 1.1//EN" "http://www.w3.org/Graphics/SVG/1.1/DTD/svg11.dtd"><svg t="1576051826343" class="icon" viewBox="0 0 1024 1024" version="1.1" xmlns="http://www.w3.org/2000/svg" p-id="2954" width="40" height="40" xmlns:xlink="http://www.w3.org/1999/xlink"><defs><style type="text/css"></style></defs><path d="M727.78 388.5h-14.61a1 1 0 0 1-1-1v-73.75a200.48 200.48 0 0 0-56.91-140.59 196 196 0 0 0-108.46-57c-123.52-21.31-236 75.32-236 200.62v70.72a1 1 0 0 1-1 1h-12.93a102.44 102.44 0 0 0-102.43 102.44v317.22a102.42 102.42 0 0 0 102.43 102.42h429.8A102.42 102.42 0 0 0 829.1 808.16V489.93A101.27 101.27 0 0 0 727.78 388.5zM358.9 313.75c0-91.83 60.82-152.53 152.54-152.53 45 0 78.88 14.06 109.45 45.52 29.91 30.8 43.07 63.82 43.07 107v73.76a1 1 0 0 1-1 1h-303a1 1 0 0 1-1-1z m422.34 495.41c0 35.71-17.75 53.45-53.46 53.45H297a54.45 54.45 0 0 1-54.45-54.45V498.41a61.81 61.81 0 0 1 61.81-61.81h422.31a54.45 54.45 0 0 1 54.45 54.45v318.11z m0 0" p-id="2955" fill="#4ec99b"></path><path d="M510 570.38c-17.07 0-22.31 12.72-22.31 22.87V691c0 10.15 10 18.41 22.31 18.41s22.3-8.26 22.3-18.41v-97.75c0-10.15-7.81-22.87-22.32-22.87z m0 0" p-id="2956" fill="#4ec99b"></path></svg>