<?xml version="1.0" standalone="no"?><!DOCTYPE svg PUBLIC "-//W3C//DTD SVG 1.1//EN" "http://www.w3.org/Graphics/SVG/1.1/DTD/svg11.dtd"><svg t="1576169164427" class="icon" viewBox="0 0 1024 1024" version="1.1" xmlns="http://www.w3.org/2000/svg" p-id="2756" width="40" height="40" xmlns:xlink="http://www.w3.org/1999/xlink"><defs><style type="text/css"></style></defs><path d="M512 146.112776c-155.194618 0-281.452183 121.521704-281.452183 270.873244 0 49.519834 14.047947 98.006128 41.023322 140.820236l220.98195 309.748646c4.365424 6.469342 11.661597 10.332323 19.446911 10.332323 7.810896 0 15.102976-3.886517 19.445888-10.332323l221.528396-310.563198c26.474978-42.120306 40.4779-90.534969 40.4779-139.987265C793.452183 267.63448 667.198711 146.112776 512 146.112776L512 146.112776zM512 568.291051c-77.723176 0-140.726092-63.009056-140.726092-140.726092 0-77.723176 63.002916-140.726092 140.726092-140.726092 77.722152 0 140.726092 63.002916 140.726092 140.726092C652.726092 505.283018 589.722152 568.291051 512 568.291051L512 568.291051zM512 568.291051" p-id="2757" fill="#4ec99b"></path></svg>