<?xml version="1.0" standalone="no"?><!DOCTYPE svg PUBLIC "-//W3C//DTD SVG 1.1//EN" "http://www.w3.org/Graphics/SVG/1.1/DTD/svg11.dtd"><svg t="1582372564119" class="icon" viewBox="0 0 1024 1024" version="1.1" xmlns="http://www.w3.org/2000/svg" p-id="3907" width="40" height="40" xmlns:xlink="http://www.w3.org/1999/xlink"><defs><style type="text/css"></style></defs><path d="M980.3 730.3c0 63.6-70.1 115.3-156.3 115.3H198.8c-86.2 0-156.3-51.7-156.3-115.3V615H7.8v115.3c0 77.7 85.7 141 191 141H824c105.3 0 191-63.2 191-141V615h-34.7v115.3zM824 128H198.8c-105.3 0-191 63.2-191 141v123.9h34.7V269c0-63.6 70.1-115.3 156.3-115.3H824c86.2 0 156.3 51.7 156.3 115.3v123.9h34.7V269c0-77.8-85.7-141-191-141z" fill="#4ec99b" p-id="3908"></path><path d="M145.8 277.5h365.6v27.6H145.8zM614.9 291.3h50.6v13.8h-50.6zM138.4 443l58.3-14.5V594h-56.8v23.8h145.4V594h-56.6V395.2l-90.3 22.5zM418.7 544.2c23.6-20.1 39.6-36.6 48-49.6 8.5-13 12.7-26.2 12.7-39.8 0-17.9-6.6-32.2-19.8-42.8-13.2-10.6-31.2-15.9-54-15.9-26.5 0-49.8 6.6-69.7 19.8v28c20.5-16.5 42.1-24.8 64.6-24.8 15.3 0 27 3.3 35 9.9 8.1 6.6 12.1 16.1 12.1 28.5 0 10.9-3.4 21.4-10.3 31.6-6.9 10.2-20.5 24-40.7 41.4l-73.7 63.2v23.9h154.2v-24.5H360.9v-0.6l57.8-48.3zM625.9 587.6c-10.2 7.4-24 11-41.5 11-21.8 0-41.4-5.8-58.8-17.3v28.6c14.7 7.7 34.1 11.5 58.1 11.5 27.3 0 49.2-6 65.6-18 16.4-12 24.7-27.8 24.7-47.4 0-14.1-5.3-25.8-16-35.2-10.6-9.4-25.1-15-43.5-16.7v-0.6c33.8-8.2 50.8-26.5 50.8-55 0-15.5-6.5-28.1-19.6-37.8-13.1-9.7-30.5-14.6-52.1-14.6-22.2 0-41.5 4.1-58.1 12.4v26c15.7-10.3 32.5-15.5 50.3-15.5 31.1 0 46.7 12 46.7 35.9 0 25.9-20.4 38.8-61.1 38.8h-20.2v22.8h21.1c45.9 0 68.9 13.8 68.9 41.4 0 12.5-5.1 22.4-15.3 29.7zM813.9 399.8L701.7 543.4v17.9h118.2v56.6H851v-56.6h32.4v-21.8H851V399.8h-37.1z m6 48.3v91.3h-85.1l75.5-97c4.9-7.6 8.1-13.2 9.6-16.7h0.7c-0.5 8.5-0.7 15.9-0.7 22.4z" fill="#4ec99b" p-id="3909"></path></svg>